<svg width="20" height="20" viewBox="0 0 20 20" fill="none" xmlns="http://www.w3.org/2000/svg">
<path d="M3 19.1666V17.9166H17V19.1666H3ZM3 2.08331V0.833313H17V2.08331H3ZM10 10.75C10.6944 10.75 11.2778 10.5139 11.75 10.0416C12.2222 9.56942 12.4583 8.98609 12.4583 8.29165C12.4583 7.5972 12.2222 7.01387 11.75 6.54165C11.2778 6.06942 10.6944 5.83331 10 5.83331C9.30556 5.83331 8.72222 6.06942 8.25 6.54165C7.77778 7.01387 7.54167 7.5972 7.54167 8.29165C7.54167 8.98609 7.77778 9.56942 8.25 10.0416C8.72222 10.5139 9.30556 10.75 10 10.75ZM2.75 16.6666C2.41667 16.6666 2.125 16.5416 1.875 16.2916C1.625 16.0416 1.5 15.75 1.5 15.4166V4.58331C1.5 4.2222 1.625 3.92359 1.875 3.68748C2.125 3.45137 2.41667 3.33331 2.75 3.33331H17.25C17.5833 3.33331 17.875 3.45831 18.125 3.70831C18.375 3.95831 18.5 4.24998 18.5 4.58331V15.4166C18.5 15.75 18.375 16.0416 18.125 16.2916C17.875 16.5416 17.5833 16.6666 17.25 16.6666H2.75ZM4.58333 15.4166C5.29167 14.5416 6.13194 13.8854 7.10417 13.4479C8.07639 13.0104 9.03819 12.7916 9.98958 12.7916C10.941 12.7916 11.9132 13.0104 12.9062 13.4479C13.8993 13.8854 14.7361 14.5416 15.4167 15.4166H17.25V4.58331H2.75V15.4166H4.58333ZM6.54167 15.4166H13.5C13.0694 15 12.566 14.6666 11.9896 14.4166C11.4132 14.1666 10.75 14.0416 10 14.0416C9.25 14.0416 8.59375 14.1666 8.03125 14.4166C7.46875 14.6666 6.97222 15 6.54167 15.4166ZM10.0033 9.49998C9.66776 9.49998 9.38542 9.38192 9.15625 9.14581C8.92708 8.9097 8.8125 8.62498 8.8125 8.29165C8.8125 7.95831 8.92599 7.67359 9.15296 7.43748C9.37993 7.20137 9.66118 7.08331 9.99671 7.08331C10.3322 7.08331 10.6146 7.20137 10.8438 7.43748C11.0729 7.67359 11.1875 7.95831 11.1875 8.29165C11.1875 8.62498 11.074 8.9097 10.847 9.14581C10.6201 9.38192 10.3388 9.49998 10.0033 9.49998Z" fill="#AB2C34"/>
</svg>
