<svg width="30" height="30" viewBox="0 0 30 30" fill="none" xmlns="http://www.w3.org/2000/svg">
<path d="M15 29.5C13.2708 29.5 11.6458 29.1719 10.125 28.5156C8.60417 27.8594 7.28125 26.9688 6.15625 25.8438C5.03125 24.7188 4.14062 23.3958 3.48438 21.875C2.82812 20.3542 2.5 18.7292 2.5 17C2.5 15.2708 2.82812 13.6458 3.48438 12.125C4.14062 10.6042 5.03125 9.28125 6.15625 8.15625C7.28125 7.03125 8.60417 6.14062 10.125 5.48438C11.6458 4.82812 13.2708 4.5 15 4.5C16.7292 4.5 18.3542 4.82812 19.875 5.48438C21.3958 6.14062 22.7188 7.03125 23.8438 8.15625C24.9688 9.28125 25.8594 10.6042 26.5156 12.125C27.1719 13.6458 27.5 15.2708 27.5 17V18.6562C27.5 19.8229 27.0885 20.8073 26.2656 21.6094C25.4427 22.4115 24.4375 22.8125 23.25 22.8125C22.5 22.8125 21.7917 22.6302 21.125 22.2656C20.4583 21.901 19.9479 21.3854 19.5938 20.7188C19.0521 21.4271 18.375 21.9531 17.5625 22.2969C16.75 22.6406 15.8958 22.8125 15 22.8125C13.375 22.8125 11.9948 22.25 10.8594 21.125C9.72396 20 9.15625 18.625 9.15625 17C9.15625 15.375 9.72396 13.9896 10.8594 12.8438C11.9948 11.6979 13.375 11.125 15 11.125C16.625 11.125 18.0052 11.6979 19.1406 12.8438C20.276 13.9896 20.8438 15.375 20.8438 17V18.6562C20.8438 19.3021 21.0781 19.8438 21.5469 20.2812C22.0156 20.7188 22.5833 20.9375 23.25 20.9375C23.8958 20.9375 24.4531 20.7188 24.9219 20.2812C25.3906 19.8438 25.625 19.3021 25.625 18.6562V17C25.625 14.0417 24.5938 11.5312 22.5312 9.46875C20.4688 7.40625 17.9583 6.375 15 6.375C12.0417 6.375 9.53125 7.40625 7.46875 9.46875C5.40625 11.5312 4.375 14.0417 4.375 17C4.375 19.9583 5.40625 22.4688 7.46875 24.5312C9.53125 26.5938 12.0417 27.625 15 27.625H21.6875V29.5H15ZM15 20.9375C16.1042 20.9375 17.0417 20.5573 17.8125 19.7969C18.5833 19.0365 18.9688 18.1042 18.9688 17C18.9688 15.875 18.5833 14.9271 17.8125 14.1562C17.0417 13.3854 16.1042 13 15 13C13.8958 13 12.9583 13.3854 12.1875 14.1562C11.4167 14.9271 11.0312 15.875 11.0312 17C11.0312 18.1042 11.4167 19.0365 12.1875 19.7969C12.9583 20.5573 13.8958 20.9375 15 20.9375Z" fill="#AB2C34"/>
</svg>
