<svg width="10" height="10" viewBox="0 0 10 10" fill="none" xmlns="http://www.w3.org/2000/svg">
<path d="M1.45837 8.74998C1.29171 8.74998 1.14587 8.68748 1.02087 8.56248C0.895874 8.43748 0.833374 8.29165 0.833374 8.12498V3.12498C0.833374 2.95831 0.895874 2.81248 1.02087 2.68748C1.14587 2.56248 1.29171 2.49998 1.45837 2.49998H3.33337V1.45831C3.33337 1.29165 3.39587 1.14581 3.52087 1.02081C3.64587 0.895813 3.79171 0.833313 3.95837 0.833313H6.04171C6.20837 0.833313 6.35421 0.895813 6.47921 1.02081C6.60421 1.14581 6.66671 1.29165 6.66671 1.45831V2.49998H8.54171C8.70837 2.49998 8.85421 2.56248 8.97921 2.68748C9.10421 2.81248 9.16671 2.95831 9.16671 3.12498V8.12498C9.16671 8.29165 9.10421 8.43748 8.97921 8.56248C8.85421 8.68748 8.70837 8.74998 8.54171 8.74998H1.45837ZM3.95837 2.49998H6.04171V1.45831H3.95837V2.49998ZM8.54171 6.1354H5.94796V6.7604H4.07296V6.1354H1.45837V8.12498H8.54171V6.1354ZM4.69796 6.1354H5.32296V5.5104H4.69796V6.1354ZM1.45837 5.5104H4.07296V4.8854H5.94796V5.5104H8.54171V3.12498H1.45837V5.5104Z" fill="#AB2C34"/>
</svg>
