<svg width="20" height="20" viewBox="0 0 20 20" fill="none" xmlns="http://www.w3.org/2000/svg">
<path d="M7.47917 11.5833H12.1667V10.3333H7.47917V11.5833ZM7.47917 9.70833H15.7083V8.45833H7.47917V9.70833ZM7.47917 7.83333H15.7083V6.58333H7.47917V7.83333ZM5.75 16.1667C5.41667 16.1667 5.125 16.0417 4.875 15.7917C4.625 15.5417 4.5 15.25 4.5 14.9167V3.25C4.5 2.91667 4.625 2.625 4.875 2.375C5.125 2.125 5.41667 2 5.75 2H17.4167C17.75 2 18.0417 2.125 18.2917 2.375C18.5417 2.625 18.6667 2.91667 18.6667 3.25V14.9167C18.6667 15.25 18.5417 15.5417 18.2917 15.7917C18.0417 16.0417 17.75 16.1667 17.4167 16.1667H5.75ZM5.75 14.9167H17.4167V3.25H5.75V14.9167ZM3.25 18.6667C2.91667 18.6667 2.625 18.5417 2.375 18.2917C2.125 18.0417 2 17.75 2 17.4167V4.5H3.25V17.4167H16.1667V18.6667H3.25Z" fill="#AB2C34"/>
</svg>
