<svg width="20" height="20" viewBox="0 0 20 20" fill="none" xmlns="http://www.w3.org/2000/svg">
<path d="M9.89587 18.3334L13.6667 8.33341H15.375L19.25 18.3334H17.4375L16.5834 15.7084H12.5834L11.6042 18.3334H9.89587ZM13.0417 14.2501H16L14.5417 10.2084H14.5L13.0417 14.2501ZM3.33337 15.8334L2.18754 14.6876L6.43754 10.4376C5.90976 9.82647 5.44101 9.21189 5.03129 8.59383C4.62157 7.97578 4.26393 7.33341 3.95837 6.66675H5.77087C6.00699 7.12508 6.2674 7.55911 6.55212 7.96883C6.83685 8.37855 7.15976 8.79869 7.52087 9.22925C8.14587 8.57647 8.66671 7.89939 9.08337 7.198C9.50004 6.49661 9.85421 5.76397 10.1459 5.00008H0.833374V3.33341H6.66671V1.66675H8.33337V3.33341H14.1667V5.00008H11.8125C11.507 5.95841 11.1007 6.89939 10.5938 7.823C10.0868 8.74661 9.46532 9.62508 8.72921 10.4584L10.7709 12.5209L10.1459 14.2084L7.50004 11.6667L3.33337 15.8334Z" fill="#AB2C34"/>
</svg>
