<svg width="181" height="34" viewBox="0 0 181 34" fill="none" xmlns="http://www.w3.org/2000/svg">
<path d="M0.447998 33V2.08801H23.248V8.04001H8.176V14.52H21.472V20.568H8.176V27.048H23.248V33H0.447998Z" fill="#1A1A1A"/>
<path d="M36.0156 33.48C33.8076 33.48 31.9196 33.128 30.3516 32.424C28.7836 31.72 27.5836 30.568 26.7516 28.968C25.9196 27.336 25.5036 25.16 25.5036 22.44C25.5036 19.688 25.9836 17.384 26.9436 15.528C27.9036 13.64 29.2156 12.216 30.8796 11.256C32.5756 10.264 34.5116 9.76801 36.6876 9.76801C37.8716 9.76801 38.9276 9.89601 39.8556 10.152C40.8156 10.408 41.7116 10.792 42.5436 11.304V0.64801H50.2716V33H43.5996L43.1676 31.08C42.2396 31.88 41.1996 32.488 40.0476 32.904C38.8956 33.288 37.5516 33.48 36.0156 33.48ZM38.2236 27.864C39.9196 27.864 41.3596 27.288 42.5436 26.136V16.92C41.4556 15.928 40.0636 15.432 38.3676 15.432C36.7356 15.432 35.4876 16.056 34.6236 17.304C33.7916 18.52 33.3756 20.248 33.3756 22.488C33.3756 24.664 33.7756 26.104 34.5756 26.808C35.4076 27.512 36.6236 27.864 38.2236 27.864Z" fill="#1A1A1A"/>
<path d="M62.9751 33.48C60.2871 33.48 58.1911 32.728 56.6871 31.224C55.1831 29.688 54.4311 27.464 54.4311 24.552V10.248H62.1591V24.12C62.1591 25.4 62.4631 26.344 63.0711 26.952C63.7111 27.528 64.6551 27.816 65.9031 27.816C66.8311 27.816 67.7111 27.624 68.5431 27.24C69.3751 26.856 70.0631 26.376 70.6071 25.8V10.248H78.3351V33H71.1351L70.8951 31.08C69.9671 31.784 68.8471 32.36 67.5351 32.808C66.2231 33.256 64.7031 33.48 62.9751 33.48Z" fill="#1A1A1A"/>
<path d="M89.6301 33.48C88.1901 33.48 86.8461 33.224 85.5981 32.712C84.3821 32.2 83.4061 31.416 82.6701 30.36C81.9341 29.272 81.5661 27.928 81.5661 26.328C81.5661 23.992 82.3501 22.168 83.9181 20.856C85.5181 19.512 87.9021 18.84 91.0701 18.84H97.4061V18.312C97.4061 17.16 97.0221 16.344 96.2541 15.864C95.4861 15.352 94.0461 15.096 91.9341 15.096C89.3421 15.096 86.7981 15.496 84.3021 16.296V11.304C85.4221 10.856 86.7821 10.488 88.3821 10.2C90.0141 9.91201 91.7261 9.76801 93.5181 9.76801C97.0381 9.76801 99.7901 10.488 101.774 11.928C103.79 13.368 104.798 15.656 104.798 18.792V33H98.0301L97.6461 31.08C96.8141 31.848 95.7421 32.44 94.4301 32.856C93.1501 33.272 91.5501 33.48 89.6301 33.48ZM92.0781 28.728C93.2941 28.728 94.3501 28.52 95.2461 28.104C96.1421 27.688 96.8621 27.16 97.4061 26.52V23.304H91.9341C89.6621 23.304 88.5261 24.216 88.5261 26.04C88.5261 26.872 88.8141 27.528 89.3901 28.008C89.9661 28.488 90.8621 28.728 92.0781 28.728Z" fill="#1A1A1A"/>
<path d="M109.432 33V10.248H116.776L117.016 12.36C118.008 11.752 119.24 11.208 120.712 10.728C122.184 10.216 123.656 9.89601 125.128 9.76801V15.576C124.296 15.672 123.368 15.832 122.344 16.056C121.352 16.248 120.392 16.488 119.464 16.776C118.568 17.064 117.8 17.368 117.16 17.688V33H109.432Z" fill="#1A1A1A"/>
<path d="M136.656 33.48C134.448 33.48 132.56 33.128 130.992 32.424C129.424 31.72 128.224 30.568 127.392 28.968C126.56 27.336 126.144 25.16 126.144 22.44C126.144 19.688 126.624 17.384 127.584 15.528C128.544 13.64 129.856 12.216 131.52 11.256C133.216 10.264 135.152 9.76801 137.328 9.76801C138.512 9.76801 139.568 9.89601 140.496 10.152C141.456 10.408 142.352 10.792 143.184 11.304V0.64801H150.912V33H144.24L143.808 31.08C142.88 31.88 141.84 32.488 140.688 32.904C139.536 33.288 138.192 33.48 136.656 33.48ZM138.864 27.864C140.56 27.864 142 27.288 143.184 26.136V16.92C142.096 15.928 140.704 15.432 139.008 15.432C137.376 15.432 136.128 16.056 135.264 17.304C134.432 18.52 134.016 20.248 134.016 22.488C134.016 24.664 134.416 26.104 135.216 26.808C136.048 27.512 137.264 27.864 138.864 27.864Z" fill="#1A1A1A"/>
<path d="M167.179 33.48C162.795 33.48 159.563 32.472 157.483 30.456C155.403 28.408 154.363 25.464 154.363 21.624C154.363 17.816 155.403 14.888 157.483 12.84C159.595 10.792 162.827 9.76801 167.179 9.76801C171.563 9.76801 174.795 10.792 176.875 12.84C178.987 14.888 180.043 17.816 180.043 21.624C180.043 25.464 179.003 28.408 176.923 30.456C174.843 32.472 171.595 33.48 167.179 33.48ZM167.179 27.432C168.971 27.432 170.251 26.984 171.019 26.088C171.787 25.192 172.171 23.704 172.171 21.624C172.171 19.544 171.787 18.056 171.019 17.16C170.251 16.264 168.971 15.816 167.179 15.816C165.419 15.816 164.155 16.264 163.387 17.16C162.619 18.056 162.235 19.544 162.235 21.624C162.235 23.704 162.619 25.192 163.387 26.088C164.155 26.984 165.419 27.432 167.179 27.432Z" fill="#1A1A1A"/>
</svg>
