<svg width="30" height="30" viewBox="0 0 30 30" fill="none" xmlns="http://www.w3.org/2000/svg">
<path d="M1.1875 25V22.0625C1.1875 21.3333 1.375 20.6719 1.75 20.0781C2.125 19.4844 2.64583 19.0417 3.3125 18.75C4.83333 18.0833 6.20312 17.6042 7.42188 17.3125C8.64062 17.0208 9.89583 16.875 11.1875 16.875C12.4792 16.875 13.7292 17.0208 14.9375 17.3125C16.1458 17.6042 17.5104 18.0833 19.0312 18.75C19.6979 19.0417 20.224 19.4844 20.6094 20.0781C20.9948 20.6719 21.1875 21.3333 21.1875 22.0625V25H1.1875ZM23.0625 25V22.0625C23.0625 20.75 22.7292 19.6719 22.0625 18.8281C21.3958 17.9844 20.5208 17.3021 19.4375 16.7812C20.875 16.9479 22.2292 17.1927 23.5 17.5156C24.7708 17.8385 25.8021 18.2083 26.5938 18.625C27.2812 19.0208 27.8229 19.5104 28.2188 20.0938C28.6146 20.6771 28.8125 21.3333 28.8125 22.0625V25H23.0625ZM11.1875 14.9688C9.8125 14.9688 8.6875 14.5312 7.8125 13.6562C6.9375 12.7812 6.5 11.6562 6.5 10.2812C6.5 8.90625 6.9375 7.78125 7.8125 6.90625C8.6875 6.03125 9.8125 5.59375 11.1875 5.59375C12.5625 5.59375 13.6875 6.03125 14.5625 6.90625C15.4375 7.78125 15.875 8.90625 15.875 10.2812C15.875 11.6562 15.4375 12.7812 14.5625 13.6562C13.6875 14.5312 12.5625 14.9688 11.1875 14.9688ZM22.4375 10.2812C22.4375 11.6562 22 12.7812 21.125 13.6562C20.25 14.5312 19.125 14.9688 17.75 14.9688C17.5208 14.9688 17.2656 14.9531 16.9844 14.9219C16.7031 14.8906 16.4479 14.8333 16.2188 14.75C16.7188 14.2292 17.099 13.5885 17.3594 12.8281C17.6198 12.0677 17.75 11.2188 17.75 10.2812C17.75 9.34375 17.6198 8.51562 17.3594 7.79688C17.099 7.07812 16.7188 6.41667 16.2188 5.8125C16.4479 5.75 16.7031 5.69792 16.9844 5.65625C17.2656 5.61458 17.5208 5.59375 17.75 5.59375C19.125 5.59375 20.25 6.03125 21.125 6.90625C22 7.78125 22.4375 8.90625 22.4375 10.2812ZM3.0625 23.125H19.3125V22.0625C19.3125 21.7292 19.2135 21.4062 19.0156 21.0938C18.8177 20.7812 18.5729 20.5625 18.2812 20.4375C16.7812 19.7708 15.5208 19.3229 14.5 19.0938C13.4792 18.8646 12.375 18.75 11.1875 18.75C10 18.75 8.89062 18.8646 7.85938 19.0938C6.82812 19.3229 5.5625 19.7708 4.0625 20.4375C3.77083 20.5625 3.53125 20.7812 3.34375 21.0938C3.15625 21.4062 3.0625 21.7292 3.0625 22.0625V23.125ZM11.1875 13.0938C12 13.0938 12.6719 12.8281 13.2031 12.2969C13.7344 11.7656 14 11.0938 14 10.2812C14 9.46875 13.7344 8.79688 13.2031 8.26562C12.6719 7.73438 12 7.46875 11.1875 7.46875C10.375 7.46875 9.70312 7.73438 9.17188 8.26562C8.64062 8.79688 8.375 9.46875 8.375 10.2812C8.375 11.0938 8.64062 11.7656 9.17188 12.2969C9.70312 12.8281 10.375 13.0938 11.1875 13.0938Z" fill="#AB2C34"/>
</svg>
