<svg width="20" height="20" viewBox="0 0 20 20" fill="none" xmlns="http://www.w3.org/2000/svg">
<path d="M2.91663 17.5C2.58329 17.5 2.29163 17.375 2.04163 17.125C1.79163 16.875 1.66663 16.5834 1.66663 16.25V6.25002C1.66663 5.91669 1.79163 5.62502 2.04163 5.37502C2.29163 5.12502 2.58329 5.00002 2.91663 5.00002H6.66663V2.91669C6.66663 2.58335 6.79163 2.29169 7.04163 2.04169C7.29163 1.79169 7.58329 1.66669 7.91663 1.66669H12.0833C12.4166 1.66669 12.7083 1.79169 12.9583 2.04169C13.2083 2.29169 13.3333 2.58335 13.3333 2.91669V5.00002H17.0833C17.4166 5.00002 17.7083 5.12502 17.9583 5.37502C18.2083 5.62502 18.3333 5.91669 18.3333 6.25002V16.25C18.3333 16.5834 18.2083 16.875 17.9583 17.125C17.7083 17.375 17.4166 17.5 17.0833 17.5H2.91663ZM7.91663 5.00002H12.0833V2.91669H7.91663V5.00002ZM17.0833 12.2709H11.8958V13.5209H8.14579V12.2709H2.91663V16.25H17.0833V12.2709ZM9.39579 12.2709H10.6458V11.0209H9.39579V12.2709ZM2.91663 11.0209H8.14579V9.77085H11.8958V11.0209H17.0833V6.25002H2.91663V11.0209Z" fill="#AB2C34"/>
</svg>
