<svg width="20" height="20" viewBox="0 0 20 20" fill="none" xmlns="http://www.w3.org/2000/svg">
<path d="M4.62502 14.6875C5.50002 14.0764 6.36808 13.6077 7.22919 13.2813C8.0903 12.9549 9.01391 12.7917 10 12.7917C10.9861 12.7917 11.9132 12.9549 12.7813 13.2813C13.6493 13.6077 14.5209 14.0764 15.3959 14.6875C16.007 13.9375 16.441 13.1806 16.6979 12.4167C16.9549 11.6528 17.0834 10.8472 17.0834 10C17.0834 7.98613 16.4063 6.3021 15.0521 4.94794C13.6979 3.59377 12.0139 2.91669 10 2.91669C7.98613 2.91669 6.3021 3.59377 4.94794 4.94794C3.59377 6.3021 2.91669 7.98613 2.91669 10C2.91669 10.8472 3.04863 11.6528 3.31252 12.4167C3.57641 13.1806 4.01391 13.9375 4.62502 14.6875ZM9.99614 10.625C9.19317 10.625 8.51738 10.3494 7.96877 9.79823C7.42016 9.24703 7.14585 8.56995 7.14585 7.76698C7.14585 6.96401 7.42145 6.28821 7.97265 5.7396C8.52384 5.19099 9.20092 4.91669 10.0039 4.91669C10.8069 4.91669 11.4827 5.19228 12.0313 5.74348C12.5799 6.29467 12.8542 6.97176 12.8542 7.77473C12.8542 8.5777 12.5786 9.25349 12.0274 9.8021C11.4762 10.3507 10.7991 10.625 9.99614 10.625ZM10.0098 18.3334C8.86438 18.3334 7.78474 18.1146 6.77085 17.6771C5.75696 17.2396 4.87155 16.6424 4.1146 15.8854C3.35766 15.1285 2.76044 14.2447 2.32294 13.2341C1.88544 12.2234 1.66669 11.1436 1.66669 9.99448C1.66669 8.8454 1.88544 7.76738 2.32294 6.76044C2.76044 5.75349 3.35766 4.87155 4.1146 4.1146C4.87155 3.35766 5.75534 2.76044 6.76598 2.32294C7.77662 1.88544 8.85648 1.66669 10.0056 1.66669C11.1546 1.66669 12.2327 1.88544 13.2396 2.32294C14.2465 2.76044 15.1285 3.35766 15.8854 4.1146C16.6424 4.87155 17.2396 5.75371 17.6771 6.7611C18.1146 7.76849 18.3334 8.84488 18.3334 9.99027C18.3334 11.1357 18.1146 12.2153 17.6771 13.2292C17.2396 14.2431 16.6424 15.1285 15.8854 15.8854C15.1285 16.6424 14.2463 17.2396 13.2389 17.6771C12.2315 18.1146 11.1552 18.3334 10.0098 18.3334ZM10 17.0834C10.7639 17.0834 11.5104 16.9722 12.2396 16.75C12.9688 16.5278 13.6875 16.1389 14.3959 15.5834C13.6875 15.0834 12.9653 14.7014 12.2292 14.4375C11.4931 14.1736 10.75 14.0417 10 14.0417C9.25002 14.0417 8.50696 14.1736 7.77085 14.4375C7.03474 14.7014 6.31252 15.0834 5.60419 15.5834C6.31252 16.1389 7.03127 16.5278 7.76044 16.75C8.4896 16.9722 9.23613 17.0834 10 17.0834ZM10 9.37502C10.4722 9.37502 10.8577 9.22571 11.1563 8.9271C11.4549 8.62849 11.6042 8.24308 11.6042 7.77085C11.6042 7.29863 11.4549 6.91321 11.1563 6.6146C10.8577 6.31599 10.4722 6.16669 10 6.16669C9.5278 6.16669 9.14238 6.31599 8.84377 6.6146C8.54516 6.91321 8.39585 7.29863 8.39585 7.77085C8.39585 8.24308 8.54516 8.62849 8.84377 8.9271C9.14238 9.22571 9.5278 9.37502 10 9.37502Z" fill="#AB2C34"/>
</svg>
