<svg width="30" height="30" viewBox="0 0 30 30" fill="none" xmlns="http://www.w3.org/2000/svg">
<path d="M10.8125 28.125L8.4375 24.0625L3.71875 23.0938L4.25 18.5L1.25 15L4.25 11.5312L3.71875 6.9375L8.4375 5.96875L10.8125 1.875L15 3.8125L19.1875 1.875L21.5938 5.96875L26.2812 6.9375L25.75 11.5312L28.75 15L25.75 18.5L26.2812 23.0938L21.5938 24.0625L19.1875 28.125L15 26.1875L10.8125 28.125ZM11.6562 25.6562L15 24.25L18.4375 25.6562L20.5312 22.5312L24.1875 21.5938L23.8125 17.875L26.3438 15L23.8125 12.0625L24.1875 8.34375L20.5312 7.46875L18.375 4.34375L15 5.75L11.5625 4.34375L9.46875 7.46875L5.8125 8.34375L6.1875 12.0625L3.65625 15L6.1875 17.875L5.8125 21.6562L9.46875 22.5312L11.6562 25.6562ZM13.6562 19.1562L20.75 12.125L19.3438 10.8438L13.6562 16.4688L10.6875 13.375L9.25 14.7812L13.6562 19.1562Z" fill="#AB2C34"/>
</svg>
