<svg width="30" height="30" viewBox="0 0 30 30" fill="none" xmlns="http://www.w3.org/2000/svg">
<path d="M24.8438 26.25C22.4271 26.25 19.9635 25.6667 17.4531 24.5C14.9427 23.3333 12.6146 21.6771 10.4688 19.5312C8.32292 17.3854 6.66667 15.0573 5.5 12.5469C4.33333 10.0365 3.75 7.57292 3.75 5.15625C3.75 4.75446 3.88393 4.41964 4.15178 4.15178C4.41964 3.88393 4.75446 3.75 5.15625 3.75H9.53125C9.82292 3.75 10.0729 3.85417 10.2812 4.0625C10.4896 4.27083 10.6354 4.53125 10.7188 4.84375L11.5603 8.77003C11.6034 9.06918 11.599 9.33854 11.5469 9.57812C11.4948 9.81771 11.383 10.0232 11.2116 10.1946L8.09375 13.3438C8.63542 14.2604 9.20833 15.1146 9.8125 15.9062C10.4167 16.6979 11.0833 17.4479 11.8125 18.1562C12.5833 18.9479 13.3958 19.6719 14.25 20.3281C15.1042 20.9844 16 21.5625 16.9375 22.0625L19.9062 19C20.1146 18.7708 20.3557 18.6146 20.6297 18.5312C20.9037 18.4479 21.173 18.4271 21.4375 18.4688L25.1562 19.2812C25.4688 19.3646 25.7292 19.5317 25.9375 19.7826C26.1458 20.0335 26.25 20.3143 26.25 20.625V24.8438C26.25 25.2455 26.1161 25.5804 25.8482 25.8482C25.5804 26.1161 25.2455 26.25 24.8438 26.25ZM7.15625 11.625L9.6875 9.0625L8.96875 5.625H5.625C5.66667 6.5 5.80729 7.42188 6.04688 8.39062C6.28646 9.35938 6.65625 10.4375 7.15625 11.625ZM18.6875 22.9688C19.5417 23.3646 20.4688 23.6875 21.4688 23.9375C22.4688 24.1875 23.4375 24.3333 24.375 24.375V21.0312L21.1562 20.375L18.6875 22.9688Z" fill="#AB2C34"/>
</svg>
